<svg xmlns="http://www.w3.org/2000/svg" width="51" height="48" viewBox="0 0 51 48" fill="none">
  <path d="M50.5 24C50.5 36.9506 39.3361 47.5 25.5 47.5C11.6639 47.5 0.5 36.9506 0.5 24C0.5 11.0494 11.6639 0.5 25.5 0.5C39.3361 0.5 50.5 11.0494 50.5 24Z" stroke="black" stroke-opacity="0.3"/>
  <path d="M26 9L28.0902 18.616L36.2846 12.5093L31.2927 21.1353L41.7569 21.3953L32.0186 24.9949L39.8564 31.5L29.9284 28.389L31.4723 38.0954L26 29.7295L20.5277 38.0954L22.0716 28.389L12.1436 31.5L19.9814 24.9949L10.2431 21.3953L20.7073 21.1353L15.7154 12.5093L23.9098 18.616L26 9Z" fill="#4B4B4B"/>
</svg>